# xmcd CD database file
#
# Track frame offsets:
#	150
#	52982
#	93011
#	122806
#	138256
#	161357
#	207746
#	234815
#
# Disc length: 3486 seconds
#
# Revision: 0
# Processed by: cddbd v1.5.2PL0 Copyright (c) Steve Scherf et al.
# Submitted via: CDex 1.51
#
DISCID=5f0d9c08
DTITLE=Jazz Ensemble Baden-Wuerttemberg - Edition 2013
DYEAR=2013
DGENRE=Jazz
TTITLE0=Highest Spot (Thomas Siffling)
TTITLE1=Cry from East (Peter Lehel)
TTITLE2=Helin (Kristjan Randalu)
TTITLE3=Reflections - Swabian Train (Peter Lehel)
TTITLE4=Peter Lehel - Reflections - Baden Song
TTITLE5=Soundscape (Thomas Siffling)
TTITLE6=Bright Nights (Axel Kuehn)
TTITLE7=Priznanie (Bodek Janke)
EXTD=YEAR: 2013
EXTT0=
EXTT1=
EXTT2=
EXTT3=
EXTT4=
EXTT5=
EXTT6=
EXTT7=
PLAYORDER=
